<?xml version="1.0" encoding="utf-8"?>
<svg viewBox="0 0 250 80" xmlns="http://www.w3.org/2000/svg">
  <defs>
    <linearGradient id="SvgjsLinearGradient1685">
      <stop offset="0" stop-color="#334aC0" id="SvgjsStop1686"/>
      <stop offset="1" stop-color="#00aeef" id="SvgjsStop1687"/>
    </linearGradient>
  </defs>
  <g transform="matrix(1, 0, 0, 1, -289.830505, -238.983047)">
    <title>background</title>
    <rect fill="none" id="canvas_background" height="602" width="802" y="-1" x="-1"/>
  </g>
  <g transform="matrix(1, 0, 0, 1, -18.644079, -88.983055)">
    <title>Layer 1</title>
    <g fill="url(#SvgjsLinearGradient1685)" transform="matrix(2.4051605476441495,0,0,2.4051605476441495,-3.7580690900435867,-28.794132796985597) " id="SvgjsG1681">
      <path id="svg_1" d="M 34.532 79.623 C 33.803 79.623 33.217 79.252 32.774 78.51 L 23.36 58.158 L 17.149 71.654 C 16.785 72.409 16.205 72.787 15.411 72.787 C 15.138 72.787 14.858 72.722 14.571 72.591 C 13.816 72.227 13.438 71.647 13.438 70.853 C 13.438 70.58 13.504 70.306 13.634 70.033 L 21.622 52.728 C 22.026 51.973 22.605 51.595 23.36 51.595 C 24.129 51.595 24.721 51.973 25.138 52.728 L 36.31 76.849 C 36.414 77.135 36.466 77.415 36.466 77.689 C 36.466 78.496 36.095 79.082 35.353 79.447 C 35.079 79.564 34.806 79.622 34.532 79.622 L 34.532 79.623 Z M 12.227 79.565 C 11.693 79.565 11.238 79.376 10.86 78.998 C 10.483 78.621 10.294 78.165 10.294 77.631 C 10.294 77.097 10.483 76.641 10.86 76.264 C 11.238 75.886 11.693 75.697 12.227 75.697 C 12.761 75.697 13.217 75.886 13.595 76.264 C 13.972 76.641 14.161 77.097 14.161 77.631 C 14.161 78.165 13.972 78.621 13.595 78.998 C 13.217 79.376 12.761 79.565 12.227 79.565 L 12.227 79.565 Z M 42.305 79.623 C 41.772 79.623 41.316 79.434 40.938 79.057 C 40.561 78.679 40.372 78.223 40.372 77.69 C 40.372 75.567 40.675 73.835 41.28 72.494 C 41.885 71.153 42.67 70.079 43.634 69.272 C 44.597 68.464 45.632 67.836 46.739 67.387 C 47.846 66.938 48.914 66.57 49.942 66.283 C 51.869 65.762 53.301 65.144 54.239 64.428 C 55.176 63.712 55.645 62.488 55.645 60.756 C 55.645 58.868 54.955 57.468 53.575 56.557 C 52.507 55.841 51.296 55.483 49.942 55.483 C 48.588 55.483 47.371 55.841 46.29 56.557 C 44.923 57.468 44.239 58.868 44.239 60.756 C 44.239 61.29 44.05 61.746 43.673 62.123 C 43.295 62.501 42.839 62.69 42.305 62.69 C 41.772 62.69 41.316 62.501 40.938 62.123 C 40.561 61.745 40.372 61.29 40.372 60.756 C 40.372 58.751 40.837 57.071 41.768 55.717 C 42.699 54.363 43.897 53.341 45.362 52.65 C 46.827 51.96 48.354 51.615 49.942 51.615 C 51.531 51.615 53.054 51.96 54.513 52.65 C 55.971 53.341 57.169 54.363 58.106 55.717 C 59.044 57.071 59.513 58.751 59.513 60.756 C 59.526 63.699 58.562 65.945 56.622 67.494 C 55.802 68.119 54.916 68.621 53.966 68.998 C 53.015 69.376 52.058 69.701 51.095 69.975 C 49.754 70.352 48.572 70.785 47.55 71.274 C 46.528 71.762 45.72 72.484 45.128 73.442 C 44.535 74.399 44.239 75.815 44.239 77.69 C 44.239 78.223 44.05 78.679 43.673 79.057 C 43.295 79.434 42.839 79.623 42.306 79.623 L 42.305 79.623 Z M 57.579 79.623 C 57.045 79.623 56.59 79.434 56.212 79.057 C 55.834 78.679 55.646 78.223 55.646 77.69 C 55.646 77.143 55.834 76.681 56.212 76.303 C 56.59 75.925 57.045 75.737 57.579 75.736 C 58.113 75.736 58.569 75.925 58.946 76.303 C 59.324 76.681 59.513 77.143 59.513 77.69 C 59.513 78.223 59.324 78.679 58.946 79.057 C 58.569 79.434 58.113 79.623 57.579 79.623 L 57.579 79.623 Z M 73.79 79.623 C 72.826 79.623 71.863 79.526 70.899 79.33 C 68.386 78.783 66.4 77.722 64.942 76.147 C 64.604 75.769 64.434 75.346 64.434 74.877 C 64.434 74.838 64.441 74.679 64.454 74.399 C 64.467 74.119 64.669 73.79 65.059 73.412 C 65.463 73.074 65.912 72.904 66.407 72.904 C 66.42 72.904 66.563 72.914 66.837 72.934 C 67.11 72.953 67.429 73.158 67.794 73.549 C 68.757 74.526 70.059 75.183 71.7 75.522 C 72.403 75.665 73.093 75.736 73.77 75.736 C 74.695 75.736 75.606 75.6 76.505 75.326 C 78.471 74.688 79.454 73.477 79.454 71.694 C 79.454 70.769 79.04 70.03 78.214 69.477 C 77.387 68.923 75.795 68.347 73.438 67.748 C 72.344 67.475 71.264 67.162 70.196 66.811 C 66.212 65.483 64.219 63.087 64.219 59.623 C 64.219 57.019 65.235 54.975 67.266 53.49 C 69.011 52.227 71.238 51.596 73.946 51.596 C 74.493 51.635 74.949 51.84 75.313 52.211 C 75.678 52.582 75.86 53.041 75.86 53.588 C 75.847 54.135 75.655 54.584 75.284 54.936 C 74.913 55.287 74.454 55.463 73.907 55.463 L 73.692 55.463 C 72.442 55.463 71.254 55.73 70.128 56.264 C 69.001 56.798 68.327 57.729 68.106 59.057 L 68.087 59.604 C 68.087 60.737 68.559 61.612 69.503 62.231 C 70.447 62.849 72.09 63.445 74.434 64.018 C 75.489 64.278 76.524 64.578 77.54 64.916 C 81.394 66.192 83.321 68.445 83.321 71.674 C 83.321 71.961 83.308 72.254 83.282 72.553 C 82.878 75.691 81.023 77.846 77.715 79.018 C 76.465 79.421 75.157 79.623 73.79 79.623 L 73.79 79.623 Z M 81.095 58.236 C 80.561 58.236 80.105 58.047 79.728 57.67 C 79.35 57.292 79.161 56.836 79.161 56.303 C 79.161 55.769 79.35 55.313 79.728 54.935 C 80.105 54.558 80.561 54.369 81.095 54.369 C 81.642 54.369 82.104 54.558 82.481 54.935 C 82.859 55.313 83.048 55.769 83.048 56.303 C 83.048 56.836 82.859 57.292 82.481 57.67 C 82.104 58.047 81.642 58.236 81.095 58.236 L 81.095 58.236 Z M 98.341 79.623 C 97.573 79.623 96.98 79.22 96.563 78.412 L 89.728 61.498 C 89.636 61.238 89.591 60.984 89.591 60.737 C 89.591 60.502 89.636 60.268 89.728 60.033 C 89.936 59.539 90.294 59.187 90.802 58.979 C 91.049 58.888 91.297 58.842 91.544 58.842 C 92.351 58.842 92.937 59.246 93.302 60.053 L 98.341 72.514 L 106.349 52.807 C 106.674 52 107.267 51.596 108.126 51.596 C 108.373 51.596 108.621 51.648 108.868 51.752 C 109.676 52.117 110.079 52.703 110.079 53.51 C 110.079 53.757 110.027 54.005 109.923 54.252 L 100.157 78.412 C 99.741 79.22 99.135 79.623 98.341 79.623 L 98.341 79.623 Z M 88.595 55.482 C 88.048 55.482 87.585 55.293 87.208 54.916 C 86.83 54.538 86.641 54.082 86.641 53.549 C 86.641 53.015 86.83 52.559 87.208 52.181 C 87.585 51.804 88.048 51.615 88.595 51.615 C 89.128 51.615 89.584 51.804 89.962 52.181 C 90.339 52.559 90.528 53.015 90.528 53.549 C 90.528 54.082 90.339 54.538 89.962 54.916 C 89.584 55.293 89.128 55.482 88.594 55.482 L 88.595 55.482 Z"/>
    </g>
    <g fill="url(#SvgjsLinearGradient1688)" transform="matrix(0.7523007182534169,0,0,0.7523007182534169,-0.5662084356177701,73.02785133233311) " id="SvgjsG1682"/>
  </g>
</svg>