<?xml version="1.0" encoding="utf-8"?>
<svg viewBox="0 0 250 100" xmlns="http://www.w3.org/2000/svg">
  <defs>
    <linearGradient id="SvgjsLinearGradient1685">
      <stop offset="0" stop-color="#2d388a" id="SvgjsStop1686"/>
      <stop offset="1" stop-color="#00aeef" id="SvgjsStop1687"/>
    </linearGradient>
    <linearGradient id="SvgjsLinearGradient1688">
      <stop offset="0" stop-color="#2d388a" id="SvgjsStop1689"/>
      <stop offset="1" stop-color="#00aeef" id="SvgjsStop1690"/>
    </linearGradient>
  </defs>
  <g transform="matrix(1, 0, 0, 1, -289.830505, -238.983047)">
    <title>background</title>
    <rect fill="none" id="canvas_background" height="602" width="802" y="-1" x="-1"/>
  </g>
  <g transform="matrix(1, 0, 0, 1, -18.644079, -88.983055)">
    <title>Layer 1</title>
    <g fill="url(#SvgjsLinearGradient1685)" transform="matrix(2.4051605476441495,0,0,2.4051605476441495,-3.7580690900435867,-28.794132796985597) " id="SvgjsG1681">
      <path id="svg_1" d="m34.53223,80.74572q-1.09375,0 -1.75781,-1.11328l-9.4141,-20.352l-6.2109,13.496q-0.54688,1.13281 -1.73828,1.13281q-0.41016,0 -0.83985,-0.19531q-1.13281,-0.54688 -1.13281,-1.73828q0,-0.41016 0.19531,-0.82032l7.9883,-17.305q0.60547,-1.13281 1.73828,-1.13281q1.15235,0 1.77735,1.13281l11.172,24.121q0.15625,0.42969 0.15625,0.83985q0,1.21094 -1.11328,1.75781q-0.41016,0.17578 -0.82032,0.17578l-0.00014,0.00094zm-22.3049,-0.05859q-0.80078,0 -1.36719,-0.56641t-0.56641,-1.3672t0.56641,-1.3672t1.3672,-0.56641t1.3672,0.56641t0.56641,1.3672t-0.56641,1.3672t-1.3672,0.56641l-0.00001,0zm30.07807,0.05859q-0.80078,0 -1.36718,-0.56641t-0.56641,-1.3672q0,-3.18359 0.9082,-5.19531t2.3535,-3.2227t3.1055,-1.8848t3.2031,-1.1035q2.89063,-0.78125 4.29688,-1.85547t1.4063,-3.6719q0,-2.83203 -2.07032,-4.19922q-1.60156,-1.07421 -3.63281,-1.07421t-3.6523,1.0742q-2.05078,1.36718 -2.05078,4.19921q0,0.80079 -0.56641,1.36719t-1.3672,0.56641t-1.3672,-0.56641t-0.56641,-1.3672q0,-3.00781 1.39649,-5.03906t3.5938,-3.0664t4.5801,-1.0352t4.5703,1.0352t3.5938,3.0664t1.4063,5.0391q0.01953,4.41406 -2.89063,6.73828q-1.23047,0.9375 -2.65625,1.50391t-2.8711,0.97656q-2.01172,0.5664 -3.54492,1.29882t-2.4219,2.168t-0.88867,4.248q0,0.80079 -0.56641,1.36719t-1.3672,0.56641l-0.00017,0.00011zm15.27371,0q-0.80079,0 -1.36719,-0.56641t-0.56641,-1.3672q0,-0.82031 0.5664,-1.38671t1.3672,-0.56641t1.3672,0.56641t0.56641,1.3867q0,0.80078 -0.5664,1.36718t-1.3672,0.56641l-0.00001,0.00003zm16.21065,0q-1.44531,0 -2.89062,-0.29297q-3.76953,-0.82031 -5.95703,-3.18359q-0.50782,-0.56641 -0.50782,-1.26953q0,-0.0586 0.01953,-0.47852t0.60547,-0.98633q0.60547,-0.50781 1.34766,-0.50781q0.01953,0 0.42969,0.02929t0.95703,0.61523q1.44531,1.46485 3.90625,1.97266q1.05469,0.21484 2.07031,0.21484q1.38672,0 2.73438,-0.41015q2.94921,-0.95703 2.94921,-3.63281q0,-1.38672 -1.24023,-2.2168t-4.7754,-1.7285q-1.64063,-0.41016 -3.24219,-0.9375q-5.97656,-1.99219 -5.97656,-7.1875q0,-3.90625 3.04687,-6.13281q2.61719,-1.89453 6.67969,-1.89453q0.82031,0.05859 1.36719,0.61523t0.54688,1.377q-0.01953,0.82031 -0.57617,1.34766t-1.377,0.52734l-0.21484,0q-1.875,0 -3.56446,0.80078t-2.0215,2.793l-0.01953,0.54688q0,1.69922 1.41602,2.62695t4.9316,1.7871q1.58203,0.39063 3.10547,0.89844q5.78125,1.91406 5.78125,6.75781q0,0.42969 -0.03906,0.87891q-0.60547,4.70703 -5.56641,6.46484q-1.875,0.60547 -3.92578,0.60547l0.0001,-0.00008zm7.305,-21.387q-0.80078,0 -1.36719,-0.56641t-0.56641,-1.3672t0.56641,-1.3672t1.3672,-0.56641q0.82032,0 1.38672,0.56641t0.56641,1.3672t-0.56641,1.3672t-1.3867,0.56641l-0.00003,0zm17.24606,21.387q-1.15234,0 -1.77734,-1.21094l-6.8359,-16.914q-0.13672,-0.39062 -0.13672,-0.76172q0,-0.35156 0.13672,-0.70312q0.3125,-0.74219 1.07422,-1.05469q0.37109,-0.13672 0.74219,-0.13672q1.21093,0 1.75781,1.21094l5.0391,12.461l8.0078,-19.707q0.48828,-1.21094 1.77734,-1.21094q0.3711,0 0.74219,0.15625q1.21094,0.54688 1.21094,1.75781q0,0.3711 -0.15625,0.74219l-9.7656,24.16q-0.625,1.21094 -1.81641,1.21094l-0.00009,0zm-9.7463,-24.141q-0.82031,0 -1.38672,-0.56641t-0.56641,-1.3672t0.56641,-1.3672t1.38671,-0.56641q0.80078,0 1.36718,0.56641t0.56641,1.3672t-0.56641,1.3672t-1.3672,0.56641l0.00003,0z"/>
    </g>
    <g fill="url(#SvgjsLinearGradient1688)" transform="matrix(0.7523007182534169,0,0,0.7523007182534169,-0.5662084356177701,73.02785133233311) " id="SvgjsG1682">
      <text id="svg_2" text-anchor="middle" font-size="23px" font-family="Montserrat" y="145.96227" x="185.25586" style="white-space: pre;">Africa To Silicon Valley</text>
    </g>
  </g>
</svg>
