<?xml version="1.0" encoding="UTF-8"?>
<svg xmlns="http://www.w3.org/2000/svg" xmlns:xlink="http://www.w3.org/1999/xlink" width="485.44pt" height="116.84pt" viewBox="0 0 485.44 116.84" version="1.1">
<defs>
<clipPath id="clip1">
  <path d="M 450 39 L 485.441406 39 L 485.441406 103 L 450 103 Z M 450 39 "/>
</clipPath>
<clipPath id="clip2">
  <path d="M 0 84 L 92 84 L 92 116.839844 L 0 116.839844 Z M 0 84 "/>
</clipPath>
</defs>
<g id="surface1">
<path style=" stroke:none;fill-rule:nonzero;fill:rgb(10.435486%,9.396362%,10.044861%);fill-opacity:1;" d="M 240.882813 12.085938 L 252.613281 12.085938 L 252.613281 102.734375 L 240.882813 102.734375 L 240.882813 12.085938 "/>
<path style=" stroke:none;fill-rule:nonzero;fill:rgb(10.435486%,9.396362%,10.044861%);fill-opacity:1;" d="M 428.265625 39.703125 L 440.027344 39.703125 L 440.027344 102.734375 L 428.265625 102.734375 Z M 427.015625 12.085938 L 441.136719 12.085938 L 441.136719 25.265625 L 427.015625 25.265625 L 427.015625 12.085938 "/>
<path style=" stroke:none;fill-rule:nonzero;fill:rgb(10.435486%,9.396362%,10.044861%);fill-opacity:1;" d="M 295.011719 71.726563 C 290.265625 71.726563 272.40625 71.726563 272.40625 84.53125 C 272.40625 88.546875 274.902344 95.453125 285.398438 95.453125 C 291.402344 95.453125 295.894531 93.070313 298.769531 88.675781 C 301.382813 84.410156 301.503906 80.886719 301.761719 72.101563 C 299.648438 71.847656 297.890625 71.726563 295.011719 71.726563 M 303.140625 102.738281 C 302.269531 99.609375 302.015625 96.585938 302.015625 93.320313 C 296.394531 103.746094 287.890625 104.746094 282.664063 104.746094 C 268.285156 104.746094 260.527344 96.585938 260.527344 86.167969 C 260.527344 81.136719 262.285156 73.109375 271.53125 67.707031 C 278.277344 63.945313 288.265625 63.570313 293.265625 63.570313 C 296.253906 63.570313 298.144531 63.691406 301.761719 63.945313 C 301.761719 56.160156 301.761719 52.757813 299.515625 50.003906 C 297.144531 46.855469 292.015625 45.859375 288.652344 45.859375 C 276.78125 45.859375 276.164063 54.019531 276.039063 56.535156 L 264.285156 56.535156 C 264.660156 53.277344 265.035156 48.882813 268.65625 44.605469 C 273.40625 39.332031 282.289063 37.828125 288.894531 37.828125 C 298.027344 37.828125 307.753906 40.703125 311.128906 47.117188 C 313.128906 50.886719 313.253906 53.902344 313.253906 56.78125 L 312.761719 86.917969 C 312.761719 87.914063 312.882813 96.339844 313.757813 102.738281 L 303.140625 102.738281 "/>
<path style=" stroke:none;fill-rule:nonzero;fill:rgb(10.435486%,9.396362%,10.044861%);fill-opacity:1;" d="M 323.777344 46.996094 L 323.65625 39.703125 L 335.394531 39.703125 L 335.515625 49.882813 C 336.894531 47.242188 341.386719 38.453125 355.625 38.453125 C 361.234375 38.453125 378.375 40.589844 378.375 59.921875 L 378.375 102.734375 L 366.367188 102.734375 L 366.367188 62.6875 C 366.367188 58.539063 365.875 54.773438 363 51.878906 C 359.992188 48.992188 355.878906 47.621094 351.882813 47.621094 C 343.386719 47.621094 335.515625 53.773438 335.515625 66.445313 L 335.515625 102.734375 L 323.777344 102.734375 L 323.777344 46.996094 "/>
<path style=" stroke:none;fill-rule:nonzero;fill:rgb(10.435486%,9.396362%,10.044861%);fill-opacity:1;" d="M 382.039063 39.703125 L 393.15625 39.703125 L 393.15625 26.269531 L 404.769531 22.503906 L 404.769531 39.703125 L 418.757813 39.703125 L 418.757813 48.363281 L 404.769531 48.363281 L 404.769531 85.917969 C 404.769531 89.046875 404.769531 94.332031 413.140625 94.332031 C 415.519531 94.332031 417.761719 93.949219 418.757813 93.695313 L 418.757813 102.867188 C 416.636719 103.242188 413.265625 103.609375 409.007813 103.609375 C 398.273438 103.609375 393.15625 100.480469 393.15625 90.1875 L 393.15625 48.363281 L 382.039063 48.363281 L 382.039063 39.703125 "/>
<g clip-path="url(#clip1)" clip-rule="nonzero">
<path style=" stroke:none;fill-rule:nonzero;fill:rgb(10.435486%,9.396362%,10.044861%);fill-opacity:1;" d="M 450.839844 52.511719 C 450.839844 48.242188 450.585938 43.84375 450.203125 39.703125 L 462.078125 39.703125 L 462.332031 51.886719 C 464.570313 43.101563 472.070313 40.210938 477.320313 39.453125 C 480.824219 38.953125 483.449219 39.074219 485.441406 39.214844 L 485.441406 50.753906 C 484.820313 50.515625 484.070313 50.375 483.191406 50.261719 C 482.3125 50.132813 481.203125 50.132813 479.820313 50.132813 C 465.953125 50.132813 462.695313 58.410156 462.695313 69.207031 L 462.695313 102.730469 L 450.839844 102.730469 L 450.839844 52.511719 "/>
</g>
<path style=" stroke:none;fill-rule:nonzero;fill:rgb(10.435486%,9.396362%,10.044861%);fill-opacity:1;" d="M 45.878906 74.871094 C 29.070313 74.871094 15.445313 61.171875 15.445313 44.28125 C 15.445313 27.386719 29.070313 13.695313 45.878906 13.695313 C 62.683594 13.695313 76.3125 27.386719 76.3125 44.28125 C 76.3125 61.171875 62.683594 74.871094 45.878906 74.871094 M 45.878906 0 C 21.570313 0 1.859375 19.804688 1.859375 44.242188 C 1.859375 68.671875 21.570313 88.484375 45.878906 88.484375 C 70.191406 88.484375 89.898438 68.671875 89.898438 44.242188 C 89.898438 19.804688 70.191406 0 45.878906 0 "/>
<g clip-path="url(#clip2)" clip-rule="nonzero">
<path style=" stroke:none;fill-rule:nonzero;fill:rgb(10.435486%,9.396362%,10.044861%);fill-opacity:1;" d="M 85.222656 84.597656 L 45.878906 101.671875 L 6.53125 84.597656 L 0 97.1875 L 45.878906 116.839844 L 91.757813 97.1875 L 85.222656 84.597656 "/>
</g>
<path style=" stroke:none;fill-rule:nonzero;fill:rgb(10.435486%,9.396362%,10.044861%);fill-opacity:1;" d="M 130.925781 51.882813 L 145.785156 51.882813 C 154.046875 51.882813 166.65625 51.261719 166.65625 36.449219 C 166.65625 22.25 154.910156 22.25 148.398438 22.25 L 130.925781 22.25 Z M 118.4375 12.089844 L 148.652344 12.089844 C 159.652344 12.089844 167.15625 12.71875 173.28125 19.367188 C 177.78125 24.007813 179.894531 30.167969 179.894531 36.9375 C 179.894531 43.847656 177.652344 49.757813 172.785156 54.648438 C 168.027344 59.414063 161.796875 62.441406 145.539063 62.441406 L 130.925781 62.441406 L 130.925781 102.738281 L 118.4375 102.738281 L 118.4375 12.089844 "/>
<path style=" stroke:none;fill-rule:nonzero;fill:rgb(10.435486%,9.396362%,10.044861%);fill-opacity:1;" d="M 212.277344 71.726563 C 207.527344 71.726563 189.675781 71.726563 189.675781 84.53125 C 189.675781 88.546875 192.164063 95.453125 202.664063 95.453125 C 208.65625 95.453125 213.15625 93.070313 216.042969 88.675781 C 218.664063 84.410156 218.777344 80.886719 219.03125 72.101563 C 216.90625 71.847656 215.152344 71.726563 212.277344 71.726563 M 220.402344 102.738281 C 219.527344 99.609375 219.273438 96.585938 219.273438 93.320313 C 213.660156 103.746094 205.160156 104.746094 199.90625 104.746094 C 185.539063 104.746094 177.816406 96.585938 177.816406 86.167969 C 177.816406 81.136719 179.546875 73.109375 188.800781 67.707031 C 195.550781 63.945313 205.546875 63.570313 210.535156 63.570313 C 213.527344 63.570313 215.40625 63.691406 219.03125 63.945313 C 219.03125 56.160156 219.03125 52.757813 216.789063 50.003906 C 214.410156 46.855469 209.289063 45.859375 205.90625 45.859375 C 194.042969 45.859375 193.421875 54.019531 193.292969 56.535156 L 181.558594 56.535156 C 181.921875 53.277344 182.300781 48.882813 185.917969 44.605469 C 190.683594 39.332031 199.535156 37.828125 206.160156 37.828125 C 215.28125 37.828125 225.027344 40.703125 228.402344 47.117188 C 230.414063 50.886719 230.527344 53.902344 230.527344 56.78125 L 230.023438 86.917969 C 230.023438 87.914063 230.160156 96.339844 231.023438 102.738281 L 220.402344 102.738281 "/>
</g>
</svg>
